<svg width="93" height="93" viewBox="0 0 93 93" fill="none" xmlns="http://www.w3.org/2000/svg">
<path d="M86.1633 29.9205C82.187 25.9384 76.8902 23.7499 71.2629 23.7499C69.8577 23.7499 68.4718 23.8858 67.1246 24.1513C68.109 17.6052 65.9787 10.962 61.1866 6.17058C57.2106 2.1885 51.9134 0 46.2861 0C40.6588 0 35.3681 2.1885 31.3923 6.17058L31.1397 6.42308C26.3089 11.2533 24.3209 17.8577 25.1692 24.1578C18.3503 22.8175 11.1624 24.9218 6.1632 29.9205C-2.0544 38.1369 -2.0544 51.5012 6.1632 59.7115L6.41573 59.9638C10.5213 64.0688 15.9155 66.1215 21.3162 66.1215C22.7667 66.1215 24.2172 65.9662 25.6419 65.6685C23.7639 72.8035 25.739 80.5023 31.1332 85.8958L31.3858 86.1485C35.362 90.1304 40.6588 92.3188 46.2861 92.3188C51.9134 92.3188 57.2041 90.1304 61.1866 86.1485C66.73 80.6058 68.5237 72.7258 66.5938 65.6619C68.0378 65.9662 69.495 66.1215 70.9521 66.115C76.4694 66.115 81.9024 63.9588 85.9041 59.9573L86.1568 59.705C94.3744 51.4885 94.3744 38.1242 86.1568 29.914L86.1633 29.9205ZM34.1574 9.44685L34.4099 9.19435C37.583 6.02165 41.7986 4.27342 46.2861 4.27342C50.774 4.27342 54.9896 6.02165 58.1627 9.19435C62.514 13.5455 64.1073 19.8067 62.4302 25.6859C60.2022 26.7154 58.1431 28.1399 56.3559 29.9269L52.5093 33.773C51.428 32.2903 50.1328 30.7233 48.3583 29.9723V18.3757C48.3583 17.1973 47.4001 16.239 46.2215 16.239C45.0429 16.239 44.0847 17.1973 44.0847 18.3757V29.914C41.9736 30.7363 40.5357 32.7306 39.3248 34.4076C38.7678 35.1846 38.2435 35.9162 37.7385 36.4146C37.68 36.4731 37.6023 36.5377 37.5377 36.6027L34.1379 33.2032C27.5911 26.6571 27.5911 15.9995 34.1379 9.45335L34.1574 9.44685ZM55.922 42.8704C56.0128 42.9481 56.1032 43.0319 56.1874 43.11C56.2132 43.1358 56.2394 43.1615 56.2651 43.1877C56.3428 43.2588 56.414 43.3365 56.479 43.4077C56.5113 43.4465 56.5502 43.4854 56.5825 43.5242C56.6602 43.6085 56.7248 43.6988 56.7898 43.7831C56.7898 43.7831 56.8025 43.7962 56.8091 43.8092C56.8221 43.8219 56.8287 43.835 56.8352 43.8542C56.8998 43.945 56.9518 44.0358 56.9968 44.12C57.0164 44.1523 57.0295 44.1846 57.0422 44.2169C57.0745 44.2881 57.1072 44.3596 57.1264 44.4373C57.1329 44.4696 57.146 44.4954 57.1522 44.5277C57.1783 44.625 57.191 44.7285 57.191 44.8258C57.191 44.91 57.1783 44.9938 57.1587 45.0781C57.1587 45.1042 57.146 45.13 57.1395 45.1492C57.1199 45.2142 57.1006 45.2788 57.0745 45.3435C57.0683 45.3696 57.0552 45.3888 57.0487 45.415C57.0098 45.4992 56.9645 45.5831 56.9129 45.6738C56.861 45.7581 56.8025 45.8423 56.7379 45.9265C56.7248 45.9458 56.7056 45.9654 56.686 45.9912C56.6279 46.0623 56.5694 46.1335 56.4982 46.2046C56.4852 46.2177 56.4725 46.2373 56.4594 46.25C56.2909 46.4315 56.1032 46.6062 55.8962 46.7877C55.8832 46.8004 55.8701 46.8069 55.8574 46.82C55.7535 46.9104 55.6501 46.9946 55.54 47.0854C55.0865 47.4481 54.5815 47.8169 54.0829 48.1731C53.8691 48.3219 53.6621 48.4773 53.4482 48.6331C52.7747 49.125 52.1142 49.6365 51.5445 50.2062C50.7998 50.9508 50.1459 51.8638 49.5112 52.7446C49.4204 52.8673 49.3361 52.9904 49.2457 53.1135C49.1873 53.1977 49.1292 53.2754 49.0707 53.3596C49.0576 53.3788 49.045 53.3985 49.0319 53.4177C48.9799 53.4892 48.9284 53.5538 48.8765 53.625C48.8634 53.6446 48.8442 53.6638 48.8311 53.6835C48.6822 53.8777 48.5333 54.0719 48.3906 54.2531L48.3779 54.2662C48.1964 54.4862 48.0217 54.6935 47.8406 54.8812C47.834 54.8877 47.8209 54.9008 47.8144 54.9069C47.7367 54.9912 47.6525 55.0688 47.5748 55.14C47.5621 55.1531 47.5424 55.1662 47.5294 55.1854C47.4582 55.2504 47.387 55.3085 47.3093 55.3669C47.2963 55.3731 47.2901 55.3862 47.277 55.3927C47.2705 55.3992 47.2574 55.4058 47.2513 55.4119C47.1797 55.4638 47.1085 55.5158 47.0374 55.5612C47.0181 55.5738 47.0051 55.5804 46.9854 55.5935C46.9077 55.6388 46.83 55.6777 46.7589 55.71C46.7331 55.7231 46.7135 55.7292 46.6877 55.7423C46.6231 55.7681 46.5646 55.7877 46.5 55.8008C46.4804 55.8008 46.4611 55.8069 46.4481 55.8135C46.4481 55.8135 46.435 55.8135 46.4223 55.8135C46.3381 55.8331 46.2604 55.8396 46.1761 55.8396C46.0984 55.8396 46.0207 55.8265 45.943 55.8135C45.9299 55.8135 45.9172 55.8135 45.9042 55.8069C45.8911 55.8069 45.8784 55.8008 45.8653 55.7942C45.8134 55.7812 45.7553 55.7619 45.7034 55.7423H45.6907C45.6645 55.7358 45.6387 55.7231 45.6191 55.71C45.561 55.6842 45.5091 55.6581 45.451 55.6258C45.4249 55.6127 45.4056 55.6 45.3795 55.5869C45.3083 55.5481 45.2371 55.5027 45.166 55.4508C45.1464 55.4381 45.1337 55.425 45.114 55.4119C45.0494 55.3669 44.9848 55.315 44.9198 55.2565C44.9071 55.2438 44.8875 55.2308 44.8744 55.2177C44.8032 55.1531 44.7255 55.0819 44.6544 55.0108C44.6413 54.9977 44.6221 54.9785 44.609 54.9654C44.5378 54.8942 44.4732 54.8227 44.4016 54.7515C44.3889 54.7388 44.3759 54.7258 44.3628 54.7127C44.2851 54.6285 44.2139 54.5446 44.1362 54.4538C44.1105 54.4281 44.0908 54.3954 44.0651 54.3696C44.0328 54.3308 44.007 54.2985 43.9743 54.2596C43.8189 54.0719 43.6635 53.8712 43.5081 53.6638C43.4954 53.6508 43.4888 53.6381 43.4758 53.625C43.4238 53.5538 43.3657 53.4762 43.3138 53.405C43.3011 53.3919 43.2946 53.3788 43.2815 53.3596C43.1326 53.1523 42.9838 52.945 42.8349 52.7381C42.2002 51.8573 41.5459 50.9446 40.8016 50.2C40.1926 49.5912 39.4737 49.0473 38.7551 48.5227C38.5932 48.4062 38.4312 48.2831 38.2628 48.1665C37.7642 47.8108 37.2592 47.4415 36.806 47.0788C36.6956 46.9946 36.5921 46.9042 36.4887 46.8135C36.4756 46.8004 36.4625 46.7938 36.4498 46.7812C36.2425 46.5996 36.0548 46.425 35.8863 46.2435C35.8736 46.2308 35.8605 46.2112 35.8474 46.1985C35.7828 46.1269 35.7178 46.0558 35.6597 45.9846C35.6401 45.9654 35.6274 45.9458 35.6078 45.92C35.5432 45.8358 35.4847 45.7515 35.4331 45.6673C35.3812 45.5831 35.3358 45.4992 35.297 45.4085C35.2843 45.3823 35.2777 45.3631 35.2712 45.3373C35.2454 45.2723 35.2258 45.2077 35.2066 45.1431C35.2066 45.1169 35.1935 45.0912 35.187 45.0715C35.1677 44.9877 35.1547 44.9035 35.1547 44.8192C35.1547 44.7219 35.1677 44.6315 35.1935 44.5342V44.515C35.2 44.4888 35.2066 44.4631 35.2193 44.4373C35.2389 44.3723 35.2647 44.3012 35.297 44.2365C35.3101 44.2042 35.3293 44.1654 35.3489 44.1327C35.3878 44.0615 35.4266 43.9969 35.472 43.9258C35.4847 43.8996 35.4978 43.8804 35.5174 43.8542C35.5174 43.8542 35.5301 43.835 35.5366 43.8285C35.6012 43.7377 35.6728 43.6473 35.7505 43.5565C35.7828 43.5177 35.8151 43.4854 35.8474 43.4465C35.8994 43.3881 35.9574 43.3235 36.0159 43.2654C36.0613 43.22 36.1067 43.1746 36.1517 43.1292C36.2036 43.0773 36.2621 43.0258 36.3202 42.9738C36.3721 42.9285 36.4237 42.8831 36.4756 42.8377C36.5729 42.7538 36.6699 42.6696 36.7737 42.5919C36.7864 42.5788 36.7995 42.5723 36.8126 42.5596C37.2657 42.1904 37.7708 41.8277 38.2758 41.4715C39.1567 40.8373 40.0695 40.1831 40.8142 39.4385C41.559 38.6938 42.2129 37.7812 42.8476 36.9004C42.8672 36.8746 42.8799 36.855 42.8995 36.8292L42.9126 36.8162C42.9707 36.7385 43.0226 36.6608 43.0807 36.5831C43.1069 36.5442 43.1326 36.5119 43.1584 36.4731C43.2038 36.4146 43.2426 36.3565 43.288 36.2981C43.3203 36.2592 43.3461 36.2204 43.3788 36.1815C43.4177 36.13 43.4565 36.0781 43.4954 36.0262C43.5277 35.9808 43.56 35.9358 43.5923 35.8969C43.6246 35.8515 43.6635 35.7996 43.6958 35.7542C43.7285 35.7088 43.7608 35.67 43.7996 35.625C43.8385 35.5796 43.8708 35.5342 43.9097 35.4888C43.942 35.45 43.9743 35.4112 44.007 35.3658C44.0458 35.3204 44.0781 35.2754 44.117 35.23C44.1235 35.2169 44.1362 35.2104 44.1428 35.2038C44.2205 35.1135 44.2982 35.0227 44.3824 34.9319C44.3955 34.9192 44.4082 34.8996 44.4213 34.8865C44.4859 34.8154 44.557 34.7442 44.6221 34.6731L44.6348 34.66C44.6478 34.6473 44.6609 34.6342 44.674 34.6212C44.7386 34.5565 44.8098 34.4917 44.8744 34.4335C44.8875 34.4205 44.9071 34.4076 44.9198 34.3946C44.9975 34.3234 45.0817 34.2587 45.1594 34.2003C45.166 34.1939 45.1791 34.1874 45.1852 34.1809C45.2568 34.1292 45.3279 34.0838 45.3925 34.045C45.4183 34.032 45.4445 34.0191 45.4637 34.0061C45.5222 33.9737 45.5737 33.9478 45.6322 33.922C45.6518 33.9155 45.671 33.909 45.6907 33.896C45.6907 33.896 45.7034 33.896 45.7164 33.8896C45.7745 33.8702 45.8264 33.8507 45.8849 33.8378C45.8976 33.8378 45.9107 33.8378 45.9172 33.8313C45.9299 33.8313 45.943 33.8313 45.9561 33.8183C46.0338 33.8054 46.1115 33.7925 46.1892 33.7925C46.2734 33.7925 46.3573 33.8054 46.435 33.8183C46.435 33.8183 46.4546 33.8183 46.4611 33.8248C46.4738 33.8248 46.4935 33.8313 46.5065 33.8378C46.5712 33.8507 46.6296 33.8766 46.6943 33.896C46.72 33.9025 46.7396 33.9155 46.7654 33.9284C46.8431 33.9608 46.9208 33.9997 46.9985 34.0514L47.0116 34.0579C47.0958 34.1097 47.1797 34.168 47.2639 34.2327C47.2836 34.2457 47.3028 34.2587 47.3159 34.2781C47.387 34.3363 47.4582 34.3946 47.5294 34.4593C47.5424 34.4723 47.5621 34.4917 47.5748 34.5047C47.7498 34.6665 47.9244 34.8477 48.0994 35.0485C48.0994 35.0485 48.106 35.055 48.1125 35.0615C48.2029 35.165 48.2937 35.2688 48.3779 35.3788C48.4037 35.4112 48.436 35.45 48.4622 35.4823C48.501 35.5277 48.5333 35.5731 48.5722 35.625C48.6045 35.6638 48.6368 35.7088 48.6691 35.7477C48.708 35.7931 48.7407 35.845 48.7795 35.8904C48.8118 35.9358 48.8442 35.9746 48.8765 36.0196C48.9153 36.0715 48.9542 36.1235 48.993 36.1754C49.0253 36.2142 49.0515 36.2531 49.0838 36.2919C49.1292 36.35 49.168 36.4085 49.2131 36.4665C49.2392 36.5054 49.265 36.5377 49.2908 36.5765C49.3492 36.6542 49.4012 36.7319 49.4592 36.8096L49.4723 36.8227C49.4723 36.8227 49.5046 36.8681 49.5239 36.8938C50.1586 37.7746 50.8129 38.6873 51.5572 39.4319C52.3019 40.1765 53.2151 40.8308 54.096 41.4654C54.7045 41.8988 55.3131 42.3392 55.8378 42.7862C55.8508 42.7927 55.8574 42.8054 55.8635 42.8119C55.8635 42.8119 55.9089 42.8508 55.9286 42.8704H55.922ZM9.43986 56.9531L9.18729 56.7008C6.01426 53.5281 4.26583 49.3127 4.26583 44.8258C4.26583 40.3385 6.01426 36.1235 9.18729 32.9507C13.6749 28.4636 20.3772 26.9032 26.3801 28.9039C27.4033 31.578 28.9898 34.0773 31.1397 36.2335L34.1315 39.225C32.927 40.1962 31.7937 41.3485 31.2304 42.825H19.2116C18.033 42.825 17.0746 43.7831 17.0746 44.9615C17.0746 46.14 18.033 47.0985 19.2116 47.0985H31.334C32.2017 49.0992 34.125 50.4846 35.7567 51.65C36.3333 52.0646 36.8772 52.4596 37.3303 52.835L33.2054 56.9596C26.6521 63.5058 15.9997 63.5058 9.44632 56.9596L9.43986 56.9531ZM58.1689 83.1442C54.9961 86.3169 50.7802 88.065 46.2927 88.065C41.8051 88.065 37.5896 86.3169 34.4099 83.1442L34.1574 82.8915C29.1129 77.8477 27.8242 70.2719 30.8419 63.8619C32.7781 62.8842 34.5977 61.5892 36.2102 59.9704L40.018 56.1631C41.0862 57.5942 42.3621 59.0573 44.0974 59.7308V72.415C44.0974 73.5935 45.056 74.5519 46.2346 74.5519C47.4128 74.5519 48.3714 73.5935 48.3714 72.415V59.6727C50.4047 58.8181 51.8034 56.8754 52.982 55.2308C53.1309 55.03 53.2736 54.8292 53.4159 54.635L58.1689 59.3877C61.342 62.5604 63.0907 66.7754 63.0907 71.2627C63.0907 75.7496 61.342 79.965 58.1689 83.1377V83.1442ZM83.1391 56.7008L82.8863 56.9531C78.3407 61.4985 71.496 63.0523 65.4283 60.9223L64.4243 60.5404C63.5438 59.0512 62.4625 57.6458 61.1866 56.3704L56.5048 51.6888C56.5048 51.6888 56.5502 51.6565 56.5759 51.6373C58.2015 50.4719 60.1245 49.0862 60.9988 47.0854H73.2635C74.4422 47.0854 75.4007 46.1269 75.4007 44.9488C75.4007 43.7704 74.4422 42.8119 73.2635 42.8119H61.0962C60.2864 40.6688 58.2727 39.2185 56.5759 38.0012C56.1163 37.6708 55.6758 37.3535 55.2873 37.0427L59.1597 33.1708C62.3071 30.0241 66.5292 28.101 70.9844 28.0233C75.5754 27.9456 79.9079 29.7003 83.1456 32.9378C89.6923 39.4838 89.6923 50.1415 83.1456 56.6942L83.1391 56.7008Z" fill="black"/>
<path d="M86.1633 29.9205C82.187 25.9384 76.8902 23.7499 71.2629 23.7499C69.8577 23.7499 68.4718 23.8858 67.1246 24.1513C68.109 17.6052 65.9787 10.962 61.1866 6.17058C57.2106 2.1885 51.9134 0 46.2861 0C40.6588 0 35.3681 2.1885 31.3923 6.17058L31.1397 6.42308C26.3089 11.2533 24.3209 17.8577 25.1692 24.1578C18.3503 22.8175 11.1624 24.9218 6.1632 29.9205C-2.0544 38.1369 -2.0544 51.5012 6.1632 59.7115L6.41573 59.9638C10.5213 64.0688 15.9155 66.1215 21.3162 66.1215C22.7667 66.1215 24.2172 65.9661 25.6419 65.6685C23.7639 72.8035 25.739 80.5023 31.1332 85.8958L31.3858 86.1485C35.362 90.1304 40.6588 92.3188 46.2861 92.3188C51.9134 92.3188 57.2041 90.1304 61.1866 86.1485C66.73 80.6058 68.5237 72.7258 66.5938 65.6619C68.0378 65.9662 69.495 66.1215 70.9521 66.115C76.4694 66.115 81.9024 63.9588 85.9041 59.9573L86.1568 59.705C94.3744 51.4885 94.3744 38.1242 86.1568 29.914L86.1633 29.9205ZM34.1574 9.44685L34.4099 9.19435C37.583 6.02165 41.7986 4.27342 46.2861 4.27342C50.774 4.27342 54.9896 6.02165 58.1627 9.19435C62.514 13.5455 64.1073 19.8067 62.4302 25.6859C60.2022 26.7154 58.1431 28.1399 56.3559 29.9269L52.5093 33.773C51.428 32.2903 50.1328 30.7233 48.3583 29.9723V18.3757C48.3583 17.1973 47.4001 16.239 46.2215 16.239C45.0429 16.239 44.0847 17.1973 44.0847 18.3757V29.914C41.9736 30.7363 40.5357 32.7306 39.3248 34.4076C38.7678 35.1846 38.2435 35.9162 37.7385 36.4146C37.68 36.4731 37.6023 36.5377 37.5377 36.6027L34.1379 33.2032C27.5911 26.6571 27.5911 15.9995 34.1379 9.45335L34.1574 9.44685ZM55.922 42.8704C56.0128 42.9481 56.1032 43.0319 56.1874 43.11C56.2132 43.1358 56.2394 43.1615 56.2651 43.1877C56.3428 43.2588 56.414 43.3365 56.479 43.4077C56.5113 43.4465 56.5502 43.4854 56.5825 43.5242C56.6602 43.6085 56.7248 43.6989 56.7898 43.7831C56.7898 43.7831 56.8025 43.7962 56.8091 43.8092C56.8221 43.8219 56.8287 43.835 56.8352 43.8542C56.8998 43.945 56.9518 44.0358 56.9968 44.12C57.0164 44.1523 57.0295 44.1846 57.0422 44.2169C57.0745 44.2881 57.1072 44.3596 57.1264 44.4373C57.1329 44.4696 57.146 44.4954 57.1522 44.5277C57.1783 44.625 57.191 44.7285 57.191 44.8258C57.191 44.91 57.1783 44.9938 57.1587 45.0781C57.1587 45.1042 57.146 45.13 57.1395 45.1492C57.1199 45.2142 57.1006 45.2788 57.0745 45.3435C57.0683 45.3696 57.0552 45.3889 57.0487 45.415C57.0098 45.4992 56.9645 45.5831 56.9129 45.6738C56.861 45.7581 56.8025 45.8423 56.7379 45.9265C56.7248 45.9458 56.7056 45.9654 56.686 45.9912C56.6279 46.0623 56.5694 46.1335 56.4982 46.2046C56.4852 46.2177 56.4725 46.2373 56.4594 46.25C56.2909 46.4315 56.1032 46.6062 55.8962 46.7877C55.8832 46.8004 55.8701 46.8069 55.8574 46.82C55.7535 46.9104 55.6501 46.9946 55.54 47.0854C55.0865 47.4481 54.5815 47.8169 54.0829 48.1731C53.869 48.3219 53.6621 48.4773 53.4482 48.6331C52.7747 49.125 52.1142 49.6365 51.5445 50.2062C50.7998 50.9508 50.1459 51.8638 49.5112 52.7446C49.4204 52.8673 49.3361 52.9904 49.2457 53.1135C49.1873 53.1977 49.1292 53.2754 49.0707 53.3596C49.0576 53.3788 49.0449 53.3985 49.0319 53.4177C48.9799 53.4892 48.9284 53.5538 48.8765 53.625C48.8634 53.6446 48.8442 53.6638 48.8311 53.6835C48.6822 53.8777 48.5333 54.0719 48.3906 54.2531L48.3779 54.2662C48.1964 54.4862 48.0217 54.6935 47.8406 54.8812C47.834 54.8877 47.8209 54.9008 47.8144 54.9069C47.7367 54.9912 47.6525 55.0688 47.5748 55.14C47.5621 55.1531 47.5424 55.1662 47.5294 55.1854C47.4582 55.2504 47.387 55.3085 47.3093 55.3669C47.2963 55.3731 47.2901 55.3862 47.277 55.3927C47.2705 55.3992 47.2574 55.4058 47.2513 55.4119C47.1797 55.4638 47.1085 55.5158 47.0374 55.5612C47.0181 55.5738 47.0051 55.5804 46.9854 55.5935C46.9077 55.6388 46.83 55.6777 46.7589 55.71C46.7331 55.7231 46.7135 55.7292 46.6877 55.7423C46.6231 55.7681 46.5646 55.7877 46.5 55.8008C46.4804 55.8008 46.4611 55.8069 46.4481 55.8135C46.4481 55.8135 46.435 55.8135 46.4223 55.8135C46.3381 55.8331 46.2603 55.8396 46.1761 55.8396C46.0984 55.8396 46.0207 55.8265 45.943 55.8135C45.9299 55.8135 45.9172 55.8135 45.9041 55.8069C45.8911 55.8069 45.8784 55.8008 45.8653 55.7942C45.8134 55.7812 45.7553 55.7619 45.7034 55.7423H45.6907C45.6645 55.7358 45.6387 55.7231 45.6191 55.71C45.561 55.6842 45.5091 55.6581 45.451 55.6258C45.4249 55.6127 45.4056 55.6 45.3795 55.5869C45.3083 55.5481 45.2371 55.5027 45.166 55.4508C45.1464 55.4381 45.1337 55.425 45.114 55.4119C45.0494 55.3669 44.9848 55.315 44.9198 55.2565C44.9071 55.2438 44.8875 55.2308 44.8744 55.2177C44.8032 55.1531 44.7255 55.0819 44.6544 55.0108C44.6413 54.9977 44.6221 54.9785 44.609 54.9654C44.5378 54.8942 44.4732 54.8227 44.4016 54.7515C44.3889 54.7388 44.3759 54.7258 44.3628 54.7127C44.2851 54.6285 44.2139 54.5446 44.1362 54.4538C44.1104 54.4281 44.0908 54.3954 44.0651 54.3696C44.0327 54.3308 44.007 54.2985 43.9743 54.2596C43.8189 54.0719 43.6635 53.8712 43.5081 53.6638C43.4954 53.6508 43.4888 53.6381 43.4758 53.625C43.4238 53.5538 43.3657 53.4762 43.3138 53.405C43.3011 53.3919 43.2946 53.3788 43.2815 53.3596C43.1326 53.1523 42.9838 52.945 42.8349 52.7381C42.2002 51.8573 41.5459 50.9446 40.8016 50.2C40.1926 49.5912 39.4737 49.0473 38.7551 48.5227C38.5932 48.4062 38.4312 48.2831 38.2628 48.1665C37.7642 47.8108 37.2592 47.4415 36.806 47.0788C36.6956 46.9946 36.5921 46.9042 36.4887 46.8135C36.4756 46.8004 36.4625 46.7938 36.4498 46.7812C36.2425 46.5996 36.0548 46.425 35.8863 46.2435C35.8736 46.2308 35.8605 46.2112 35.8474 46.1985C35.7828 46.1269 35.7178 46.0558 35.6597 45.9846C35.6401 45.9654 35.6274 45.9458 35.6078 45.92C35.5432 45.8358 35.4847 45.7515 35.4331 45.6673C35.3812 45.5831 35.3358 45.4992 35.297 45.4085C35.2843 45.3823 35.2777 45.3631 35.2712 45.3373C35.2454 45.2723 35.2258 45.2077 35.2066 45.1431C35.2066 45.1169 35.1935 45.0912 35.187 45.0715C35.1677 44.9877 35.1546 44.9035 35.1546 44.8192C35.1546 44.7219 35.1677 44.6315 35.1935 44.5342V44.515C35.2 44.4888 35.2066 44.4631 35.2193 44.4373C35.2389 44.3723 35.2647 44.3012 35.297 44.2365C35.3101 44.2042 35.3293 44.1654 35.3489 44.1327C35.3878 44.0615 35.4266 43.9969 35.472 43.9258C35.4847 43.8996 35.4978 43.8804 35.5174 43.8542C35.5174 43.8542 35.5301 43.835 35.5366 43.8285C35.6013 43.7377 35.6728 43.6473 35.7505 43.5565C35.7828 43.5177 35.8151 43.4854 35.8474 43.4465C35.8994 43.3881 35.9574 43.3235 36.0159 43.2654C36.0613 43.22 36.1067 43.1746 36.1517 43.1292C36.2036 43.0773 36.2621 43.0258 36.3202 42.9738C36.3721 42.9285 36.4237 42.8831 36.4756 42.8377C36.5729 42.7538 36.6699 42.6696 36.7737 42.5919C36.7864 42.5788 36.7995 42.5723 36.8126 42.5596C37.2657 42.1904 37.7708 41.8277 38.2758 41.4715C39.1567 40.8373 40.0695 40.1831 40.8142 39.4385C41.559 38.6938 42.2129 37.7812 42.8476 36.9004C42.8672 36.8746 42.8799 36.855 42.8995 36.8292L42.9126 36.8162C42.9707 36.7385 43.0226 36.6608 43.0807 36.5831C43.1069 36.5442 43.1326 36.5119 43.1584 36.4731C43.2038 36.4146 43.2426 36.3565 43.288 36.2981C43.3203 36.2592 43.3461 36.2204 43.3788 36.1815C43.4177 36.13 43.4565 36.0781 43.4954 36.0262C43.5277 35.9808 43.56 35.9358 43.5923 35.8969C43.6246 35.8515 43.6635 35.7996 43.6958 35.7542C43.7285 35.7088 43.7608 35.67 43.7996 35.625C43.8385 35.5796 43.8708 35.5342 43.9097 35.4888C43.942 35.45 43.9743 35.4112 44.007 35.3658C44.0458 35.3204 44.0781 35.2754 44.117 35.23C44.1235 35.2169 44.1362 35.2104 44.1428 35.2038C44.2205 35.1135 44.2982 35.0227 44.3824 34.9319C44.3955 34.9192 44.4082 34.8996 44.4213 34.8865C44.4859 34.8154 44.557 34.7442 44.6221 34.6731L44.6348 34.66C44.6478 34.6473 44.6609 34.6342 44.674 34.6212C44.7386 34.5565 44.8098 34.4917 44.8744 34.4335C44.8875 34.4205 44.9071 34.4076 44.9198 34.3946C44.9975 34.3234 45.0817 34.2587 45.1594 34.2003C45.166 34.1939 45.1791 34.1874 45.1852 34.1809C45.2568 34.1292 45.3279 34.0838 45.3925 34.045C45.4183 34.032 45.4445 34.0191 45.4637 34.0061C45.5222 33.9737 45.5737 33.9478 45.6322 33.922C45.6518 33.9155 45.671 33.909 45.6907 33.896C45.6907 33.896 45.7034 33.896 45.7164 33.8896C45.7745 33.8702 45.8264 33.8507 45.8849 33.8378C45.8976 33.8378 45.9107 33.8378 45.9172 33.8313C45.9299 33.8313 45.943 33.8313 45.9561 33.8183C46.0338 33.8054 46.1115 33.7925 46.1892 33.7925C46.2734 33.7925 46.3573 33.8054 46.435 33.8183C46.435 33.8183 46.4546 33.8183 46.4611 33.8248C46.4738 33.8248 46.4935 33.8313 46.5065 33.8378C46.5712 33.8507 46.6296 33.8766 46.6943 33.896C46.72 33.9025 46.7396 33.9155 46.7654 33.9284C46.8431 33.9608 46.9208 33.9997 46.9985 34.0514L47.0116 34.0579C47.0958 34.1097 47.1797 34.168 47.2639 34.2327C47.2836 34.2457 47.3028 34.2587 47.3159 34.2781C47.387 34.3363 47.4582 34.3946 47.5294 34.4593C47.5424 34.4723 47.5621 34.4917 47.5748 34.5047C47.7498 34.6665 47.9244 34.8477 48.0994 35.0485C48.0994 35.0485 48.106 35.055 48.1125 35.0615C48.2029 35.165 48.2937 35.2688 48.3779 35.3788C48.4037 35.4112 48.436 35.45 48.4622 35.4823C48.501 35.5277 48.5333 35.5731 48.5722 35.625C48.6045 35.6638 48.6368 35.7088 48.6691 35.7477C48.708 35.7931 48.7407 35.845 48.7795 35.8904C48.8118 35.9358 48.8442 35.9746 48.8765 36.0196C48.9153 36.0715 48.9542 36.1235 48.993 36.1754C49.0253 36.2142 49.0515 36.2531 49.0838 36.2919C49.1292 36.35 49.168 36.4085 49.2131 36.4665C49.2392 36.5054 49.265 36.5377 49.2908 36.5765C49.3492 36.6542 49.4012 36.7319 49.4592 36.8096L49.4723 36.8227C49.4723 36.8227 49.5046 36.8681 49.5239 36.8938C50.1586 37.7746 50.8129 38.6873 51.5572 39.4319C52.3019 40.1765 53.2151 40.8308 54.096 41.4654C54.7045 41.8988 55.3131 42.3392 55.8378 42.7862C55.8508 42.7927 55.8574 42.8054 55.8635 42.8119C55.8635 42.8119 55.9089 42.8508 55.9286 42.8704H55.922ZM9.43986 56.9531L9.18729 56.7008C6.01426 53.5281 4.26583 49.3127 4.26583 44.8258C4.26583 40.3385 6.01426 36.1235 9.18729 32.9507C13.6749 28.4636 20.3772 26.9032 26.3801 28.9039C27.4033 31.578 28.9898 34.0773 31.1397 36.2335L34.1315 39.225C32.927 40.1962 31.7937 41.3485 31.2304 42.825H19.2116C18.033 42.825 17.0746 43.7831 17.0746 44.9615C17.0746 46.14 18.033 47.0985 19.2116 47.0985H31.334C32.2017 49.0992 34.125 50.4846 35.7567 51.65C36.3333 52.0646 36.8772 52.4596 37.3303 52.835L33.2054 56.9596C26.6521 63.5058 15.9997 63.5058 9.44632 56.9596L9.43986 56.9531ZM58.1689 83.1442C54.9961 86.3169 50.7802 88.065 46.2927 88.065C41.8051 88.065 37.5896 86.3169 34.4099 83.1442L34.1574 82.8915C29.1128 77.8477 27.8242 70.2719 30.8419 63.8619C32.7781 62.8842 34.5977 61.5892 36.2102 59.9704L40.018 56.1631C41.0862 57.5942 42.3621 59.0573 44.0974 59.7308V72.415C44.0974 73.5935 45.056 74.5519 46.2346 74.5519C47.4128 74.5519 48.3714 73.5935 48.3714 72.415V59.6727C50.4047 58.8181 51.8034 56.8754 52.982 55.2308C53.1309 55.03 53.2736 54.8292 53.4159 54.635L58.1689 59.3877C61.342 62.5604 63.0907 66.7754 63.0907 71.2627C63.0907 75.7496 61.342 79.965 58.1689 83.1377V83.1442ZM83.1391 56.7008L82.8863 56.9531C78.3407 61.4985 71.496 63.0523 65.4283 60.9223L64.4243 60.5404C63.5438 59.0512 62.4625 57.6458 61.1866 56.3704L56.5048 51.6889C56.5048 51.6889 56.5502 51.6565 56.5759 51.6373C58.2015 50.4719 60.1245 49.0862 60.9988 47.0854H73.2635C74.4422 47.0854 75.4007 46.1269 75.4007 44.9488C75.4007 43.7704 74.4422 42.8119 73.2635 42.8119H61.0962C60.2864 40.6688 58.2727 39.2185 56.5759 38.0012C56.1163 37.6708 55.6758 37.3535 55.2873 37.0427L59.1597 33.1708C62.3071 30.0241 66.5292 28.101 70.9844 28.0233C75.5754 27.9456 79.9079 29.7003 83.1456 32.9378C89.6922 39.4838 89.6922 50.1415 83.1456 56.6942L83.1391 56.7008Z" fill="black"/>
</svg>
